{
    "asset" : {
        "generator" : "Khronos glTF Blender I/O v3.4.50",
        "version" : "2.0"
    },
    "scene" : 0,
    "scenes" : [
        {
            "name" : "Scene",
            "nodes" : [
                0,
                1
            ]
        }
    ],
    "nodes" : [
        {
            "mesh" : 0,
            "name" : "Cone",
            "translation" : [
                0,
                0.07000002264976501,
                0
            ]
        },
        {
            "mesh" : 1,
            "name" : "Text",
            "translation" : [
                -0.0008330680429935455,
                0.07000000029802322,
                2.3655593395233154e-05
            ]
        }
    ],
    "meshes" : [
        {
            "name" : "Cone.002",
            "primitives" : [
                {
                    "attributes" : {
                        "POSITION" : 0,
                        "TEXCOORD_0" : 1,
                        "NORMAL" : 2
                    },
                    "indices" : 3
                }
            ]
        },
        {
            "name" : "Text",
            "primitives" : [
                {
                    "attributes" : {
                        "POSITION" : 4,
                        "TEXCOORD_0" : 5,
                        "NORMAL" : 6
                    },
                    "indices" : 7
                }
            ]
        }
    ],
    "accessors" : [
        {
            "bufferView" : 0,
            "componentType" : 5126,
            "count" : 1024,
            "max" : [
                1,
                0.07499997317790985,
                1
            ],
            "min" : [
                -1,
                -0.07500002533197403,
                -1
            ],
            "type" : "VEC3"
        },
        {
            "bufferView" : 1,
            "componentType" : 5126,
            "count" : 1024,
            "type" : "VEC2"
        },
        {
            "bufferView" : 2,
            "componentType" : 5126,
            "count" : 1024,
            "type" : "VEC3"
        },
        {
            "bufferView" : 3,
            "componentType" : 5123,
            "count" : 1536,
            "type" : "SCALAR"
        },
        {
            "bufferView" : 4,
            "componentType" : 5126,
            "count" : 3138,
            "max" : [
                0.2618461549282074,
                0.06999999284744263,
                0.2577665150165558
            ],
            "min" : [
                -0.261846125125885,
                -0.06999999284744263,
                -0.2577665448188782
            ],
            "type" : "VEC3"
        },
        {
            "bufferView" : 5,
            "componentType" : 5126,
            "count" : 3138,
            "type" : "VEC2"
        },
        {
            "bufferView" : 6,
            "componentType" : 5126,
            "count" : 3138,
            "type" : "VEC3"
        },
        {
            "bufferView" : 7,
            "componentType" : 5123,
            "count" : 13512,
            "type" : "SCALAR"
        }
    ],
    "bufferViews" : [
        {
            "buffer" : 0,
            "byteLength" : 12288,
            "byteOffset" : 0,
            "target" : 34962
        },
        {
            "buffer" : 0,
            "byteLength" : 8192,
            "byteOffset" : 12288,
            "target" : 34962
        },
        {
            "buffer" : 0,
            "byteLength" : 12288,
            "byteOffset" : 20480,
            "target" : 34962
        },
        {
            "buffer" : 0,
            "byteLength" : 3072,
            "byteOffset" : 32768,
            "target" : 34963
        },
        {
            "buffer" : 0,
            "byteLength" : 37656,
            "byteOffset" : 35840,
            "target" : 34962
        },
        {
            "buffer" : 0,
            "byteLength" : 25104,
            "byteOffset" : 73496,
            "target" : 34962
        },
        {
            "buffer" : 0,
            "byteLength" : 37656,
            "byteOffset" : 98600,
            "target" : 34962
        },
        {
            "buffer" : 0,
            "byteLength" : 27024,
            "byteOffset" : 136256,
            "target" : 34963
        }
    ],
    "buffers" : [
        {
            "byteLength" : 163280,
            "uri" : "data:application/octet-stream;base64,"
        }
    ]
}
